<?xml version="1.0" encoding="UTF-8" standalone="no"?>
<svg
   xmlns:dc="http://purl.org/dc/elements/1.1/"
   xmlns:cc="http://creativecommons.org/ns#"
   xmlns:rdf="http://www.w3.org/1999/02/22-rdf-syntax-ns#"
   xmlns:svg="http://www.w3.org/2000/svg"
   xmlns="http://www.w3.org/2000/svg"
   xmlns:sodipodi="http://sodipodi.sourceforge.net/DTD/sodipodi-0.dtd"
   xmlns:inkscape="http://www.inkscape.org/namespaces/inkscape"
   inkscape:version="1.0 (4035a4fb49, 2020-05-01)"
   sodipodi:docname="bus.svg"
   version="1.1"
   viewBox="0 0 30 30"
   id="tp_bus">
  <metadata
     id="metadata15">
    <rdf:RDF>
      <cc:Work
         rdf:about="">
        <dc:format>image/svg+xml</dc:format>
        <dc:type
           rdf:resource="http://purl.org/dc/dcmitype/StillImage" />
        <dc:title>Icon meaning bus</dc:title>
      </cc:Work>
    </rdf:RDF>
  </metadata>
  <defs
     id="defs13" />
  <sodipodi:namedview
     inkscape:current-layer="tp_bus"
     inkscape:window-maximized="0"
     inkscape:window-y="0"
     inkscape:window-x="0"
     inkscape:cy="15"
     inkscape:cx="15"
     inkscape:zoom="24.5"
     showgrid="false"
     id="namedview11"
     inkscape:window-height="480"
     inkscape:window-width="728"
     inkscape:pageshadow="2"
     inkscape:pageopacity="0"
     guidetolerance="10"
     gridtolerance="10"
     objecttolerance="10"
     borderopacity="1"
     bordercolor="#666666"
     pagecolor="#ffffff" />
  <title
     id="title2">Icon meaning bus</title>
  <path
     id="path4"
     d="M15 28.58A13.58 13.58 0 1 1 28.58 15 13.6 13.6 0 0 1 15 28.58"
     stroke-width="3"
     stroke="#ccc"
     fill="#00ade9" />
  <path
     id="path6"
     d="M15 .26A14.74 14.74 0 1 0 29.74 15 14.76 14.76 0 0 0 15 .26m0 2.32A12.42 12.42 0 1 1 2.58 15 12.44 12.44 0 0 1 15 2.58"
     fill="#fff" />
  <path
     id="path8"
     d="M15.1 20.16c1.92 0 2.82-.46 2.82-2s-.94-2-2.42-2h-2.36v4h2zm2.42-8.34c0-1.35-.94-1.73-2.59-1.73h-1.79v3.69h2c1.73 0 2.4-.71 2.4-1.73v-.23zm-7.38 11V7.55h5.73c3 0 4.59 1.52 4.59 3.78v.33a3.26 3.26 0 0 1-2.17 3.21 3.28 3.28 0 0 1 2.63 3.46v.27c0 2.46-1.83 4.21-5.06 4.21h-5.72z"
     fill="#fff" />
</svg>
