<?xml version="1.0" encoding="UTF-8" standalone="no"?>
<svg
   xmlns:dc="http://purl.org/dc/elements/1.1/"
   xmlns:cc="http://creativecommons.org/ns#"
   xmlns:rdf="http://www.w3.org/1999/02/22-rdf-syntax-ns#"
   xmlns:svg="http://www.w3.org/2000/svg"
   xmlns="http://www.w3.org/2000/svg"
   xmlns:sodipodi="http://sodipodi.sourceforge.net/DTD/sodipodi-0.dtd"
   xmlns:inkscape="http://www.inkscape.org/namespaces/inkscape"
   inkscape:version="1.0 (4035a4fb49, 2020-05-01)"
   sodipodi:docname="train.svg"
   version="1.1"
   viewBox="0 0 30 30"
   id="tp_train">
  <metadata
     id="metadata15">
    <rdf:RDF>
      <cc:Work
         rdf:about="">
        <dc:format>image/svg+xml</dc:format>
        <dc:type
           rdf:resource="http://purl.org/dc/dcmitype/StillImage" />
        <dc:title>Icon meaning train</dc:title>
      </cc:Work>
    </rdf:RDF>
  </metadata>
  <defs
     id="defs13" />
  <sodipodi:namedview
     inkscape:current-layer="tp_train"
     inkscape:window-maximized="0"
     inkscape:window-y="0"
     inkscape:window-x="0"
     inkscape:cy="15"
     inkscape:cx="15"
     inkscape:zoom="24.5"
     showgrid="false"
     id="namedview11"
     inkscape:window-height="861"
     inkscape:window-width="1351"
     inkscape:pageshadow="2"
     inkscape:pageopacity="0"
     guidetolerance="10"
     gridtolerance="10"
     objecttolerance="10"
     borderopacity="1"
     bordercolor="#666666"
     pagecolor="#ffffff" />
  <title
     id="title2">Icon meaning train</title>
  <path
     id="path4"
     d="M15 28.58A13.58 13.58 0 1 1 28.58 15 13.6 13.6 0 0 1 15 28.58"
     stroke-width="3"
     stroke="#ccc"
     fill="#f18500" />
  <path
     id="path6"
     d="M15 .26A14.74 14.74 0 1 0 29.74 15 14.76 14.76 0 0 0 15 .26m0 2.32A12.42 12.42 0 1 1 2.58 15 12.44 12.44 0 0 1 15 2.58"
     fill="#fff" />
  <path
     id="path8"
     d="M13.76 23.52a.3.3 0 0 1-.27-.29V10.88h-4a.3.3 0 0 1-.27-.31v-2a.28.28 0 0 1 .27-.29h11.04a.28.28 0 0 1 .27.29v2a.3.3 0 0 1-.27.31h-4v12.35a.29.29 0 0 1-.29.29h-2.48z"
     fill="#fff" />
</svg>
